<svg width="46" height="55" viewBox="0 0 46 55" fill="none" xmlns="http://www.w3.org/2000/svg">
<path d="M2.416 50.144C2.04 50.144 1.7 49.988 1.396 49.676C1.1 49.356 0.952 49.008 0.952 48.632C0.952 48.384 1.016 48.26 1.144 48.26C1.224 48.26 1.304 48.32 1.384 48.44C1.624 47.88 1.964 47.248 2.404 46.544C2.684 46.112 3.012 45.896 3.388 45.896C3.468 45.896 3.56 45.924 3.664 45.98C3.776 46.044 3.832 46.112 3.832 46.184C3.832 46.24 3.78 46.268 3.676 46.268C3.668 46.268 3.656 46.268 3.64 46.268C3.624 46.268 3.604 46.264 3.58 46.256H3.484C3.3 46.256 3.144 46.308 3.016 46.412C2.88 46.524 2.812 46.664 2.812 46.832C2.812 46.896 2.824 46.964 2.848 47.036C2.896 47.196 2.944 47.356 2.992 47.516C3.04 47.676 3.088 47.836 3.136 47.996C3.192 48.188 3.232 48.368 3.256 48.536C3.288 48.696 3.304 48.844 3.304 48.98C3.52 48.948 3.704 48.868 3.856 48.74C3.952 48.66 4.08 48.5 4.24 48.26C4.264 48.228 4.288 48.212 4.312 48.212C4.336 48.212 4.348 48.228 4.348 48.26C4.348 48.292 4.34 48.32 4.324 48.344C4.052 48.8 3.716 49.068 3.316 49.148C3.292 49.428 3.208 49.66 3.064 49.844C2.912 50.044 2.696 50.144 2.416 50.144ZM2.812 49.136C2.82 49.104 2.824 49.076 2.824 49.052C2.824 49.028 2.824 49 2.824 48.968C2.824 48.864 2.804 48.724 2.764 48.548C2.732 48.364 2.684 48.14 2.62 47.876C2.5 47.372 2.456 47.036 2.488 46.868C2.28 47.084 1.94 47.66 1.468 48.596C1.62 48.676 1.748 48.748 1.852 48.812C1.964 48.868 2.052 48.912 2.116 48.944C2.356 49.056 2.588 49.12 2.812 49.136ZM2.164 49.748C2.484 49.748 2.696 49.592 2.8 49.28C2.16 49.28 1.672 49.148 1.336 48.884C1.352 49.068 1.448 49.256 1.624 49.448C1.8 49.648 1.98 49.748 2.164 49.748ZM6.47088 50.168C6.25488 50.168 6.08688 50.056 5.96688 49.832C5.87088 49.648 5.82288 49.436 5.82288 49.196C5.82288 49.076 5.83088 48.944 5.84688 48.8C5.87088 48.648 5.90288 48.484 5.94288 48.308C5.43888 49.428 4.91888 49.988 4.38288 49.988C4.05488 49.988 3.89087 49.776 3.89087 49.352C3.89087 48.672 4.21888 47.968 4.87488 47.24C5.53888 46.496 6.19888 46.124 6.85488 46.124C7.16688 46.124 7.32288 46.26 7.32288 46.532C7.32288 46.868 7.09888 47.204 6.65088 47.54C6.41888 48.116 6.30288 48.708 6.30288 49.316C6.30288 49.772 6.40288 50 6.60288 50C6.86688 50 7.34688 49.496 8.04288 48.488C8.09088 48.424 8.12688 48.392 8.15088 48.392C8.17488 48.392 8.18688 48.408 8.18688 48.44C8.18688 48.48 8.17088 48.52 8.13888 48.56C7.41888 49.632 6.86288 50.168 6.47088 50.168ZM4.43088 49.616C4.93488 49.616 5.42288 49.056 5.89488 47.936C5.83088 47.952 5.77088 47.968 5.71488 47.984C5.66688 47.992 5.62288 47.996 5.58288 47.996C5.55088 47.996 5.53488 47.984 5.53488 47.96C5.53488 47.92 5.59088 47.88 5.70288 47.84C5.74288 47.816 5.79488 47.788 5.85888 47.756C5.92288 47.716 5.99488 47.672 6.07488 47.624C6.09088 47.488 6.17488 47.312 6.32688 47.096C6.47888 46.872 6.62288 46.76 6.75888 46.76C6.80688 46.76 6.83088 46.796 6.83088 46.868C6.83088 46.924 6.81088 47.012 6.77088 47.132C6.89888 46.956 6.96288 46.784 6.96288 46.616C6.96288 46.432 6.87888 46.34 6.71088 46.34C6.31088 46.34 5.78688 46.732 5.13888 47.516C4.49088 48.308 4.16688 48.916 4.16688 49.34C4.16688 49.524 4.25488 49.616 4.43088 49.616ZM9.12409 50.204C9.07609 50.204 9.02009 50.172 8.95609 50.108C8.94809 50.092 8.94409 50.064 8.94409 50.024C8.94409 49.912 8.99609 49.684 9.10009 49.34C9.26809 48.748 9.35209 48.052 9.35209 47.252C9.35209 46.596 9.21209 46.268 8.93209 46.268C8.78009 46.268 8.59209 46.368 8.36809 46.568C8.14409 46.776 8.03209 46.88 8.03209 46.88C8.00809 46.88 7.99609 46.864 7.99609 46.832C7.99609 46.824 8.00409 46.796 8.02009 46.748C8.11609 46.572 8.29609 46.396 8.56009 46.22C8.82409 46.028 9.04409 45.932 9.22009 45.932C9.55609 45.932 9.72409 46.256 9.72409 46.904C9.72409 47.392 9.63609 47.924 9.46009 48.5C9.82809 47.74 10.2681 47.092 10.7801 46.556C11.4521 45.86 12.1241 45.512 12.7961 45.512C13.2041 45.512 13.4081 45.712 13.4081 46.112C13.4081 46.24 13.3921 46.304 13.3601 46.304C13.3441 46.304 13.3281 46.268 13.3121 46.196C13.2881 45.996 13.2441 45.856 13.1801 45.776C13.1241 45.696 13.0001 45.656 12.8081 45.656C12.2721 45.656 11.7521 45.892 11.2481 46.364C10.8321 46.748 10.4841 47.224 10.2041 47.792C10.0041 48.2 9.90409 48.524 9.90409 48.764V48.8C9.90409 48.896 9.81609 49.144 9.64009 49.544C9.44809 49.976 9.30809 50.192 9.22009 50.192C9.19609 50.192 9.18009 50.196 9.17209 50.204H9.12409ZM12.4193 50.228C11.8513 50.228 11.5673 49.86 11.5673 49.124C11.5673 49.012 11.5713 48.892 11.5793 48.764C11.5953 48.628 11.6193 48.484 11.6513 48.332C11.6193 48.308 11.5873 48.276 11.5553 48.236C11.5233 48.188 11.4913 48.132 11.4593 48.068C11.4913 48.076 11.5233 48.092 11.5553 48.116C11.5953 48.132 11.6433 48.148 11.6993 48.164C11.7873 47.764 12.0273 47.368 12.4193 46.976C12.8433 46.544 13.2433 46.328 13.6193 46.328C13.7073 46.328 13.7513 46.34 13.7513 46.364C13.7513 46.38 13.6953 46.42 13.5833 46.484C13.2873 46.644 13.0113 46.892 12.7553 47.228C12.4833 47.564 12.2873 47.9 12.1673 48.236C12.1753 48.244 12.1793 48.248 12.1793 48.248C12.1793 48.248 12.1833 48.252 12.1913 48.26C12.5753 48.26 12.9753 48.076 13.3913 47.708C13.8073 47.34 14.0153 46.964 14.0153 46.58C14.0153 46.468 13.9833 46.36 13.9193 46.256C13.8633 46.16 13.7753 46.112 13.6553 46.112C13.5033 46.112 13.3233 46.172 13.1153 46.292C12.9153 46.42 12.8033 46.484 12.7793 46.484C12.7633 46.484 12.7553 46.48 12.7553 46.472C12.7553 46.376 12.8953 46.272 13.1753 46.16C13.4153 46.064 13.6033 46.016 13.7393 46.016C13.9313 46.016 14.0833 46.068 14.1953 46.172C14.3233 46.276 14.3873 46.42 14.3873 46.604C14.3873 47.028 14.1113 47.44 13.5593 47.84C13.0633 48.192 12.5833 48.388 12.1193 48.428C12.0553 48.62 12.0233 48.804 12.0233 48.98C12.0233 49.644 12.2633 49.976 12.7433 49.976C13.1113 49.976 13.4953 49.816 13.8953 49.496C14.2313 49.232 14.5113 48.912 14.7353 48.536C14.8073 48.424 14.8673 48.368 14.9153 48.368C14.9233 48.368 14.9273 48.376 14.9273 48.392C14.9273 48.424 14.8953 48.496 14.8313 48.608C14.5833 49 14.2353 49.36 13.7873 49.688C13.2993 50.048 12.8433 50.228 12.4193 50.228ZM18.5689 50.288C18.1689 50.288 17.9689 50.044 17.9689 49.556C17.9689 49.204 18.0569 48.768 18.2329 48.248C18.2009 48.144 18.1449 48.052 18.0649 47.972C17.9849 47.884 17.8809 47.812 17.7529 47.756C17.6489 47.708 17.5409 47.664 17.4289 47.624C17.3249 47.584 17.2169 47.54 17.1049 47.492C17.0009 47.444 16.9489 47.36 16.9489 47.24C16.9489 47.112 17.0049 47.036 17.1169 47.012H17.4409C17.8649 47.012 18.3089 46.964 18.7729 46.868L18.7849 46.844L19.5769 45.092C19.6169 45.004 19.6649 44.892 19.7209 44.756C19.7769 44.62 19.8449 44.464 19.9249 44.288C19.9889 44.144 20.1449 44.072 20.3929 44.072C20.5609 44.072 20.6449 44.112 20.6449 44.192C20.6449 44.216 20.4969 44.552 20.2009 45.2C19.8969 45.872 19.7289 46.224 19.6969 46.256C19.6809 46.272 19.6529 46.3 19.6129 46.34C19.5809 46.372 19.5409 46.408 19.4929 46.448C19.4609 46.504 19.4129 46.6 19.3489 46.736C19.4689 46.696 19.6729 46.628 19.9609 46.532C20.2569 46.428 20.6369 46.296 21.1009 46.136C21.1329 46.128 21.1609 46.124 21.1849 46.124C21.2089 46.116 21.2249 46.112 21.2329 46.112C21.2649 46.112 21.2809 46.12 21.2809 46.136C21.2809 46.272 20.6049 46.532 19.2529 46.916C19.0929 47.228 18.9569 47.496 18.8449 47.72C18.7329 47.936 18.6489 48.112 18.5929 48.248C18.4889 48.504 18.4089 48.752 18.3529 48.992C18.3049 49.224 18.2809 49.452 18.2809 49.676C18.2809 49.94 18.3689 50.072 18.5449 50.072C18.7609 50.072 19.0449 49.92 19.3969 49.616C19.5809 49.456 19.7169 49.34 19.8049 49.268C19.8929 49.188 19.9369 49.148 19.9369 49.148C19.9609 49.148 19.9729 49.16 19.9729 49.184C19.9729 49.208 19.9609 49.244 19.9369 49.292C19.8089 49.484 19.6049 49.688 19.3249 49.904C18.9969 50.16 18.7449 50.288 18.5689 50.288ZM18.2809 48.08C18.3369 47.92 18.3969 47.756 18.4609 47.588C18.5329 47.42 18.6089 47.248 18.6889 47.072C18.4889 47.12 18.2849 47.164 18.0769 47.204C17.8769 47.244 17.6769 47.28 17.4769 47.312C17.8929 47.528 18.1609 47.784 18.2809 48.08ZM20.2461 50.492C20.1501 50.492 20.1101 50.46 20.1261 50.396C20.1021 50.332 20.0461 50.232 19.9581 50.096C19.8621 49.952 19.8141 49.864 19.8141 49.832C19.8141 49.768 19.8421 49.732 19.8981 49.724C19.9781 49.676 20.0621 49.616 20.1501 49.544C20.2381 49.472 20.3341 49.392 20.4381 49.304C20.6941 48.568 21.0301 47.696 21.4461 46.688C21.8621 45.672 22.3621 44.524 22.9461 43.244C22.9861 43.164 23.0261 43.068 23.0661 42.956C23.1141 42.836 23.1781 42.704 23.2581 42.56C23.3541 42.376 23.5661 42.284 23.8941 42.284C24.0141 42.284 24.0741 42.312 24.0741 42.368C24.0741 42.384 24.0661 42.4 24.0501 42.416C23.9701 42.56 23.8741 42.74 23.7621 42.956C23.6501 43.172 23.5141 43.428 23.3541 43.724C22.8101 44.764 22.3421 45.7 21.9501 46.532C21.5661 47.364 21.2621 48.096 21.0381 48.728C21.4861 48.28 21.8541 47.88 22.1421 47.528C22.4381 47.168 22.6621 46.852 22.8141 46.58C22.8221 46.564 22.8341 46.54 22.8501 46.508C22.8661 46.476 22.8821 46.444 22.8981 46.412C22.9461 46.332 23.0261 46.292 23.1381 46.292C23.2341 46.292 23.2821 46.324 23.2821 46.388C23.2821 46.428 23.2781 46.484 23.2701 46.556C23.2621 46.628 23.2501 46.716 23.2341 46.82C23.2181 46.924 23.2021 47.016 23.1861 47.096C23.1781 47.176 23.1741 47.244 23.1741 47.3C23.1741 47.788 23.2461 48.28 23.3901 48.776C23.5981 49.464 23.8821 49.808 24.2421 49.808C24.3061 49.808 24.3861 49.788 24.4821 49.748C24.5781 49.708 24.6341 49.688 24.6501 49.688C24.7141 49.688 24.7461 49.72 24.7461 49.784C24.7461 49.864 24.6661 49.936 24.5061 50C24.3381 50.064 24.2101 50.096 24.1221 50.096C23.7221 50.096 23.3581 49.772 23.0301 49.124C22.7501 48.54 22.6101 47.996 22.6101 47.492C22.6101 47.452 22.6101 47.416 22.6101 47.384C22.6101 47.352 22.6141 47.32 22.6221 47.288C22.4781 47.496 22.2621 47.752 21.9741 48.056C21.6861 48.36 21.3301 48.712 20.9061 49.112C20.8661 49.248 20.8301 49.38 20.7981 49.508C20.7661 49.636 20.7341 49.756 20.7021 49.868C20.6941 49.9 20.6861 49.944 20.6781 50C20.6701 50.048 20.6581 50.104 20.6421 50.168C20.5861 50.384 20.4541 50.492 20.2461 50.492ZM20.1861 50.12C20.2021 50.056 20.2181 49.984 20.2341 49.904C20.2581 49.824 20.2861 49.744 20.3181 49.664C20.2701 49.704 20.2261 49.74 20.1861 49.772C20.1461 49.804 20.1061 49.836 20.0661 49.868C20.1061 49.924 20.1461 50.008 20.1861 50.12ZM25.6381 50.228C25.0701 50.228 24.7861 49.86 24.7861 49.124C24.7861 49.012 24.7901 48.892 24.7981 48.764C24.8141 48.628 24.8381 48.484 24.8701 48.332C24.8381 48.308 24.8061 48.276 24.7741 48.236C24.7421 48.188 24.7101 48.132 24.6781 48.068C24.7101 48.076 24.7421 48.092 24.7741 48.116C24.8141 48.132 24.8621 48.148 24.9181 48.164C25.0061 47.764 25.2461 47.368 25.6381 46.976C26.0621 46.544 26.4621 46.328 26.8381 46.328C26.9261 46.328 26.9701 46.34 26.9701 46.364C26.9701 46.38 26.9141 46.42 26.8021 46.484C26.5061 46.644 26.2301 46.892 25.9741 47.228C25.7021 47.564 25.5061 47.9 25.3861 48.236C25.3941 48.244 25.3981 48.248 25.3981 48.248C25.3981 48.248 25.4021 48.252 25.4101 48.26C25.7941 48.26 26.1941 48.076 26.6101 47.708C27.0261 47.34 27.2341 46.964 27.2341 46.58C27.2341 46.468 27.2021 46.36 27.1381 46.256C27.0821 46.16 26.9941 46.112 26.8741 46.112C26.7221 46.112 26.5421 46.172 26.3341 46.292C26.1341 46.42 26.0221 46.484 25.9981 46.484C25.9821 46.484 25.9741 46.48 25.9741 46.472C25.9741 46.376 26.1141 46.272 26.3941 46.16C26.6341 46.064 26.8221 46.016 26.9581 46.016C27.1501 46.016 27.3021 46.068 27.4141 46.172C27.5421 46.276 27.6061 46.42 27.6061 46.604C27.6061 47.028 27.3301 47.44 26.7781 47.84C26.2821 48.192 25.8021 48.388 25.3381 48.428C25.2741 48.62 25.2421 48.804 25.2421 48.98C25.2421 49.644 25.4821 49.976 25.9621 49.976C26.3301 49.976 26.7141 49.816 27.1141 49.496C27.4501 49.232 27.7301 48.912 27.9541 48.536C28.0261 48.424 28.0861 48.368 28.1341 48.368C28.1421 48.368 28.1461 48.376 28.1461 48.392C28.1461 48.424 28.1141 48.496 28.0501 48.608C27.8021 49 27.4541 49.36 27.0061 49.688C26.5181 50.048 26.0621 50.228 25.6381 50.228ZM33.1317 50.204C32.6677 50.204 32.4357 49.868 32.4357 49.196C32.4357 48.868 32.5077 48.38 32.6517 47.732C32.4837 48.052 32.3317 48.328 32.1957 48.56C32.0597 48.792 31.9437 48.976 31.8477 49.112C31.4157 49.704 31.0197 50 30.6597 50C30.2837 50 30.0957 49.752 30.0957 49.256C30.0957 48.496 30.4997 47.688 31.3077 46.832C32.1157 45.976 32.9077 45.504 33.6837 45.416C33.8597 44.992 34.0317 44.588 34.1997 44.204C34.3677 43.82 34.5277 43.456 34.6797 43.112C34.7437 42.976 34.8157 42.82 34.8957 42.644C34.9837 42.468 35.0797 42.272 35.1837 42.056C35.3197 41.872 35.5357 41.78 35.8317 41.78C35.9437 41.78 35.9997 41.808 35.9997 41.864C35.9997 41.864 35.9917 41.88 35.9757 41.912C35.9117 42.04 35.8237 42.204 35.7117 42.404C35.6077 42.596 35.4877 42.824 35.3517 43.088C35.1277 43.504 34.9157 43.916 34.7157 44.324C34.5157 44.724 34.3237 45.112 34.1397 45.488C34.2357 45.512 34.2837 45.584 34.2837 45.704C34.2837 45.848 34.1877 46.084 33.9957 46.412C33.8917 46.572 33.7997 46.708 33.7197 46.82C33.6397 46.924 33.5677 47 33.5037 47.048C33.3517 47.36 33.2197 47.752 33.1077 48.224C32.9877 48.688 32.9277 49.084 32.9277 49.412C32.9277 49.804 33.0317 50 33.2397 50C33.4877 50 33.7797 49.784 34.1157 49.352C34.2277 49.216 34.4437 48.892 34.7637 48.38C34.8037 48.332 34.8317 48.308 34.8477 48.308C34.8717 48.308 34.8837 48.32 34.8837 48.344C34.8837 48.344 34.8757 48.368 34.8597 48.416C34.2437 49.608 33.6677 50.204 33.1317 50.204ZM30.7197 49.556C31.3037 49.556 31.8757 48.904 32.4357 47.6C32.2837 47.648 32.1597 47.672 32.0637 47.672C32.0317 47.672 32.0157 47.656 32.0157 47.624C32.0157 47.584 32.0717 47.544 32.1837 47.504C32.2957 47.464 32.4277 47.392 32.5797 47.288C32.6117 47.208 32.6437 47.12 32.6757 47.024C32.7157 46.92 32.7517 46.808 32.7837 46.688C32.8077 46.624 32.8357 46.592 32.8677 46.592C32.9237 46.592 32.9517 46.628 32.9517 46.7C32.9517 46.772 32.9157 46.904 32.8437 47.096C32.8837 47.064 32.9197 47.036 32.9517 47.012C32.9917 46.98 33.0277 46.956 33.0597 46.94C33.1397 46.74 33.2197 46.536 33.2997 46.328C33.3877 46.12 33.4757 45.908 33.5637 45.692C32.9557 45.828 32.2837 46.264 31.5477 47C30.7797 47.768 30.3957 48.444 30.3957 49.028C30.3957 49.38 30.5037 49.556 30.7197 49.556ZM37.0568 50.168C36.8408 50.168 36.6728 50.056 36.5528 49.832C36.4568 49.648 36.4088 49.436 36.4088 49.196C36.4088 49.076 36.4168 48.944 36.4328 48.8C36.4568 48.648 36.4888 48.484 36.5288 48.308C36.0248 49.428 35.5048 49.988 34.9688 49.988C34.6408 49.988 34.4768 49.776 34.4768 49.352C34.4768 48.672 34.8048 47.968 35.4608 47.24C36.1248 46.496 36.7848 46.124 37.4408 46.124C37.7528 46.124 37.9088 46.26 37.9088 46.532C37.9088 46.868 37.6848 47.204 37.2368 47.54C37.0048 48.116 36.8888 48.708 36.8888 49.316C36.8888 49.772 36.9888 50 37.1888 50C37.4528 50 37.9328 49.496 38.6288 48.488C38.6768 48.424 38.7128 48.392 38.7368 48.392C38.7608 48.392 38.7728 48.408 38.7728 48.44C38.7728 48.48 38.7568 48.52 38.7248 48.56C38.0048 49.632 37.4488 50.168 37.0568 50.168ZM35.0168 49.616C35.5208 49.616 36.0088 49.056 36.4808 47.936C36.4168 47.952 36.3568 47.968 36.3008 47.984C36.2528 47.992 36.2088 47.996 36.1688 47.996C36.1368 47.996 36.1208 47.984 36.1208 47.96C36.1208 47.92 36.1768 47.88 36.2888 47.84C36.3288 47.816 36.3808 47.788 36.4448 47.756C36.5088 47.716 36.5808 47.672 36.6608 47.624C36.6768 47.488 36.7608 47.312 36.9128 47.096C37.0648 46.872 37.2088 46.76 37.3448 46.76C37.3928 46.76 37.4168 46.796 37.4168 46.868C37.4168 46.924 37.3968 47.012 37.3568 47.132C37.4848 46.956 37.5488 46.784 37.5488 46.616C37.5488 46.432 37.4648 46.34 37.2968 46.34C36.8968 46.34 36.3728 46.732 35.7248 47.516C35.0768 48.308 34.7528 48.916 34.7528 49.34C34.7528 49.524 34.8408 49.616 35.0168 49.616ZM40.19 50.288C39.79 50.288 39.59 50.044 39.59 49.556C39.59 49.204 39.678 48.768 39.854 48.248C39.822 48.144 39.766 48.052 39.686 47.972C39.606 47.884 39.502 47.812 39.374 47.756C39.27 47.708 39.162 47.664 39.05 47.624C38.946 47.584 38.838 47.54 38.726 47.492C38.622 47.444 38.57 47.36 38.57 47.24C38.57 47.112 38.626 47.036 38.738 47.012H39.062C39.486 47.012 39.93 46.964 40.394 46.868L40.406 46.844L41.198 45.092C41.238 45.004 41.286 44.892 41.342 44.756C41.398 44.62 41.466 44.464 41.546 44.288C41.61 44.144 41.766 44.072 42.014 44.072C42.182 44.072 42.266 44.112 42.266 44.192C42.266 44.216 42.118 44.552 41.822 45.2C41.518 45.872 41.35 46.224 41.318 46.256C41.302 46.272 41.274 46.3 41.234 46.34C41.202 46.372 41.162 46.408 41.114 46.448C41.082 46.504 41.034 46.6 40.97 46.736C41.09 46.696 41.294 46.628 41.582 46.532C41.878 46.428 42.258 46.296 42.722 46.136C42.754 46.128 42.782 46.124 42.806 46.124C42.83 46.116 42.846 46.112 42.854 46.112C42.886 46.112 42.902 46.12 42.902 46.136C42.902 46.272 42.226 46.532 40.874 46.916C40.714 47.228 40.578 47.496 40.466 47.72C40.354 47.936 40.27 48.112 40.214 48.248C40.11 48.504 40.03 48.752 39.974 48.992C39.926 49.224 39.902 49.452 39.902 49.676C39.902 49.94 39.99 50.072 40.166 50.072C40.382 50.072 40.666 49.92 41.018 49.616C41.202 49.456 41.338 49.34 41.426 49.268C41.514 49.188 41.558 49.148 41.558 49.148C41.582 49.148 41.594 49.16 41.594 49.184C41.594 49.208 41.582 49.244 41.558 49.292C41.43 49.484 41.226 49.688 40.946 49.904C40.618 50.16 40.366 50.288 40.19 50.288ZM39.902 48.08C39.958 47.92 40.018 47.756 40.082 47.588C40.154 47.42 40.23 47.248 40.31 47.072C40.11 47.12 39.906 47.164 39.698 47.204C39.498 47.244 39.298 47.28 39.098 47.312C39.514 47.528 39.782 47.784 39.902 48.08ZM42.9232 50.228C42.3552 50.228 42.0712 49.86 42.0712 49.124C42.0712 49.012 42.0752 48.892 42.0832 48.764C42.0992 48.628 42.1232 48.484 42.1552 48.332C42.1232 48.308 42.0912 48.276 42.0592 48.236C42.0272 48.188 41.9952 48.132 41.9632 48.068C41.9952 48.076 42.0272 48.092 42.0592 48.116C42.0992 48.132 42.1472 48.148 42.2032 48.164C42.2912 47.764 42.5312 47.368 42.9232 46.976C43.3472 46.544 43.7472 46.328 44.1232 46.328C44.2112 46.328 44.2552 46.34 44.2552 46.364C44.2552 46.38 44.1992 46.42 44.0872 46.484C43.7912 46.644 43.5152 46.892 43.2592 47.228C42.9872 47.564 42.7912 47.9 42.6712 48.236C42.6792 48.244 42.6832 48.248 42.6832 48.248C42.6832 48.248 42.6872 48.252 42.6952 48.26C43.0792 48.26 43.4792 48.076 43.8952 47.708C44.3112 47.34 44.5192 46.964 44.5192 46.58C44.5192 46.468 44.4872 46.36 44.4232 46.256C44.3672 46.16 44.2792 46.112 44.1592 46.112C44.0072 46.112 43.8272 46.172 43.6192 46.292C43.4192 46.42 43.3072 46.484 43.2832 46.484C43.2672 46.484 43.2592 46.48 43.2592 46.472C43.2592 46.376 43.3992 46.272 43.6792 46.16C43.9192 46.064 44.1072 46.016 44.2432 46.016C44.4352 46.016 44.5872 46.068 44.6992 46.172C44.8272 46.276 44.8912 46.42 44.8912 46.604C44.8912 47.028 44.6152 47.44 44.0632 47.84C43.5672 48.192 43.0872 48.388 42.6232 48.428C42.5592 48.62 42.5272 48.804 42.5272 48.98C42.5272 49.644 42.7672 49.976 43.2472 49.976C43.6152 49.976 43.9992 49.816 44.3992 49.496C44.7352 49.232 45.0152 48.912 45.2392 48.536C45.3112 48.424 45.3712 48.368 45.4192 48.368C45.4272 48.368 45.4312 48.376 45.4312 48.392C45.4312 48.424 45.3992 48.496 45.3352 48.608C45.0872 49 44.7392 49.36 44.2912 49.688C43.8032 50.048 43.3472 50.228 42.9232 50.228Z" fill="black"/>
<path d="M22.5 42V13" stroke="#FF0000"/>
<path d="M22.5029 12.5L22.5029 12.5L22.4971 12.5C22.4655 12.5002 22.4341 12.494 22.4044 12.4817C22.3749 12.4694 22.3474 12.4511 22.3237 12.4273C22.3235 12.4271 22.3233 12.4269 22.3231 12.4267L16.4997 6.48043C16.4994 6.48016 16.4991 6.47989 16.4989 6.47962C15.86 5.82088 15.5 4.92974 15.5 3.99916C15.5 3.06875 15.8599 2.17778 16.4985 1.51907C17.142 0.865289 18.0113 0.5 18.9155 0.5C19.8201 0.5 20.6897 0.865635 21.3334 1.52C21.3334 1.52009 21.3335 1.52017 21.3336 1.52025L22.143 2.34565L22.5 2.70971L22.857 2.34565L23.6664 1.52025C23.6665 1.52017 23.6666 1.52009 23.6666 1.52C24.3103 0.865635 25.1799 0.5 26.0845 0.5C26.9887 0.5 27.858 0.865295 28.5015 1.51909C29.1401 2.17779 29.5 3.06876 29.5 3.99916C29.5 4.92973 29.14 5.82085 28.5012 6.47958C28.5009 6.47986 28.5006 6.48015 28.5003 6.48043L22.6769 12.4267C22.6767 12.4269 22.6765 12.4271 22.6763 12.4273C22.6526 12.4511 22.6251 12.4694 22.5956 12.4817C22.5659 12.494 22.5345 12.5002 22.5029 12.5Z" stroke="#FF0000"/>
</svg>
